# xmcd
#
# Track frame offsets: 
#        182
#        11690
#        21540
#        35592
#        47025
#        56695
#        69012
#        82687
#        94252
#        104760
#        117262
#        128712
#        138267
#        152325
#        165927
#        177730
#
# Disc length: 2521 seconds
#
# Revision: 2
# Processed by: cddbd v1.5.1PL0 Copyright (c) Steve Scherf et al.
# Submitted via: ExactAudioCopy v0.95b3
#
DISCID=cc09d710
DTITLE=Willie Nelson - King of the Outlaws
DYEAR=1993
DGENRE=
TTITLE0=What A Way To Live
TTITLE1=Misery Mansion
TTITLE2=Rainy Day Blues
TTITLE3=Night Life
TTITLE4=Man With The Blues
TTITLE5=The Storm Was In My Heart
TTITLE6=A Moment Isn't Very Long
TTITLE7=Some Other Time
TTITLE8=Blame It On The Times
TTITLE9=Shelter Of My Arms
TTITLE10=Touch Me
TTITLE11=Half A Man
TTITLE12=Will You Remember Mine
TTITLE13=Everything But You
TTITLE14=I Hope So
TTITLE15=Is There Something On Your Mind
EXTD=
EXTT0=
EXTT1=
EXTT2=
EXTT3=
EXTT4=
EXTT5=
EXTT6=
EXTT7=
EXTT8=
EXTT9=
EXTT10=
EXTT11=
EXTT12=
EXTT13=
EXTT14=
EXTT15=
PLAYORDER=
